<svg width="204" height="90" viewBox="0 0 204 90" fill="none" xmlns="http://www.w3.org/2000/svg">
<path d="M64.42 52.24C63.3133 52.24 62.2933 52.0667 61.36 51.72C60.44 51.36 59.6333 50.8533 58.94 50.2C58.26 49.5467 57.7267 48.78 57.34 47.9C56.9667 47.02 56.78 46.0533 56.78 45C56.78 43.9467 56.9667 42.98 57.34 42.1C57.7267 41.22 58.2667 40.4533 58.96 39.8C59.6533 39.1467 60.4667 38.6467 61.4 38.3C62.3333 37.94 63.36 37.76 64.48 37.76C65.72 37.76 66.8333 37.9667 67.82 38.38C68.82 38.7933 69.66 39.3933 70.34 40.18L68.26 42.1C67.7533 41.5667 67.2 41.1733 66.6 40.92C66 40.6533 65.3467 40.52 64.64 40.52C63.96 40.52 63.34 40.6267 62.78 40.84C62.22 41.0533 61.7333 41.36 61.32 41.76C60.92 42.16 60.6067 42.6333 60.38 43.18C60.1667 43.7267 60.06 44.3333 60.06 45C60.06 45.6533 60.1667 46.2533 60.38 46.8C60.6067 47.3467 60.92 47.8267 61.32 48.24C61.7333 48.64 62.2133 48.9467 62.76 49.16C63.32 49.3733 63.9333 49.48 64.6 49.48C65.24 49.48 65.86 49.38 66.46 49.18C67.0733 48.9667 67.6667 48.6133 68.24 48.12L70.08 50.46C69.32 51.0333 68.4333 51.4733 67.42 51.78C66.42 52.0867 65.42 52.24 64.42 52.24ZM67.12 50.04V44.78H70.08V50.46L67.12 50.04ZM77.8097 52.16C76.583 52.16 75.503 51.92 74.5697 51.44C73.6497 50.96 72.9364 50.3067 72.4297 49.48C71.923 48.64 71.6697 47.6867 71.6697 46.62C71.6697 45.54 71.9164 44.5867 72.4097 43.76C72.9164 42.92 73.603 42.2667 74.4697 41.8C75.3364 41.32 76.3164 41.08 77.4097 41.08C78.463 41.08 79.4097 41.3067 80.2497 41.76C81.103 42.2 81.7764 42.84 82.2697 43.68C82.763 44.5067 83.0097 45.5 83.0097 46.66C83.0097 46.78 83.003 46.92 82.9897 47.08C82.9764 47.2267 82.963 47.3667 82.9497 47.5H74.2097V45.68H81.3097L80.1097 46.22C80.1097 45.66 79.9964 45.1733 79.7697 44.76C79.543 44.3467 79.2297 44.0267 78.8297 43.8C78.4297 43.56 77.963 43.44 77.4297 43.44C76.8964 43.44 76.423 43.56 76.0097 43.8C75.6097 44.0267 75.2964 44.3533 75.0697 44.78C74.843 45.1933 74.7297 45.6867 74.7297 46.26V46.74C74.7297 47.3267 74.8564 47.8467 75.1097 48.3C75.3764 48.74 75.743 49.08 76.2097 49.32C76.6897 49.5467 77.2497 49.66 77.8897 49.66C78.463 49.66 78.963 49.5733 79.3897 49.4C79.8297 49.2267 80.2297 48.9667 80.5897 48.62L82.2497 50.42C81.7564 50.98 81.1364 51.4133 80.3897 51.72C79.643 52.0133 78.783 52.16 77.8097 52.16ZM91.2269 41.08C92.0802 41.08 92.8402 41.2533 93.5069 41.6C94.1869 41.9333 94.7202 42.4533 95.1069 43.16C95.4935 43.8533 95.6869 44.7467 95.6869 45.84V52H92.5669V46.32C92.5669 45.4533 92.3735 44.8133 91.9869 44.4C91.6135 43.9867 91.0802 43.78 90.3869 43.78C89.8935 43.78 89.4469 43.8867 89.0469 44.1C88.6602 44.3 88.3535 44.6133 88.1269 45.04C87.9135 45.4667 87.8069 46.0133 87.8069 46.68V52H84.6869V41.24H87.6669V44.22L87.1069 43.32C87.4935 42.6 88.0469 42.0467 88.7669 41.66C89.4869 41.2733 90.3069 41.08 91.2269 41.08ZM102.813 52.16C101.8 52.16 100.886 51.9333 100.073 51.48C99.2598 51.0133 98.6131 50.3667 98.1331 49.54C97.6665 48.7133 97.4331 47.74 97.4331 46.62C97.4331 45.4867 97.6665 44.5067 98.1331 43.68C98.6131 42.8533 99.2598 42.2133 100.073 41.76C100.886 41.3067 101.8 41.08 102.813 41.08C103.72 41.08 104.513 41.28 105.193 41.68C105.873 42.08 106.4 42.6867 106.773 43.5C107.146 44.3133 107.333 45.3533 107.333 46.62C107.333 47.8733 107.153 48.9133 106.793 49.74C106.433 50.5533 105.913 51.16 105.233 51.56C104.566 51.96 103.76 52.16 102.813 52.16ZM103.353 49.6C103.86 49.6 104.32 49.48 104.733 49.24C105.146 49 105.473 48.66 105.713 48.22C105.966 47.7667 106.093 47.2333 106.093 46.62C106.093 45.9933 105.966 45.46 105.713 45.02C105.473 44.58 105.146 44.24 104.733 44C104.32 43.76 103.86 43.64 103.353 43.64C102.833 43.64 102.366 43.76 101.953 44C101.54 44.24 101.206 44.58 100.953 45.02C100.713 45.46 100.593 45.9933 100.593 46.62C100.593 47.2333 100.713 47.7667 100.953 48.22C101.206 48.66 101.54 49 101.953 49.24C102.366 49.48 102.833 49.6 103.353 49.6ZM106.173 52V49.8L106.233 46.6L106.033 43.42V37.16H109.153V52H106.173ZM116.181 52.16C115.287 52.16 114.487 51.9867 113.781 51.64C113.087 51.2933 112.547 50.7667 112.161 50.06C111.774 49.34 111.581 48.4267 111.581 47.32V41.24H114.701V46.86C114.701 47.7533 114.887 48.4133 115.261 48.84C115.647 49.2533 116.187 49.46 116.881 49.46C117.361 49.46 117.787 49.36 118.161 49.16C118.534 48.9467 118.827 48.6267 119.041 48.2C119.254 47.76 119.361 47.2133 119.361 46.56V41.24H122.481V52H119.521V49.04L120.061 49.9C119.701 50.6467 119.167 51.2133 118.461 51.6C117.767 51.9733 117.007 52.16 116.181 52.16ZM129.371 52.16C128.105 52.16 127.118 51.84 126.411 51.2C125.705 50.5467 125.351 49.58 125.351 48.3V38.86H128.471V48.26C128.471 48.7133 128.591 49.0667 128.831 49.32C129.071 49.56 129.398 49.68 129.811 49.68C130.305 49.68 130.725 49.5467 131.071 49.28L131.911 51.48C131.591 51.7067 131.205 51.88 130.751 52C130.311 52.1067 129.851 52.16 129.371 52.16ZM123.691 43.88V41.48H131.151V43.88H123.691ZM145.507 52.24C144.4 52.24 143.38 52.0667 142.447 51.72C141.527 51.36 140.72 50.8533 140.027 50.2C139.347 49.5467 138.813 48.78 138.427 47.9C138.053 47.02 137.867 46.0533 137.867 45C137.867 43.9467 138.053 42.98 138.427 42.1C138.813 41.22 139.353 40.4533 140.047 39.8C140.74 39.1467 141.553 38.6467 142.487 38.3C143.42 37.94 144.447 37.76 145.567 37.76C146.807 37.76 147.92 37.9667 148.907 38.38C149.907 38.7933 150.747 39.3933 151.427 40.18L149.347 42.1C148.84 41.5667 148.287 41.1733 147.687 40.92C147.087 40.6533 146.433 40.52 145.727 40.52C145.047 40.52 144.427 40.6267 143.867 40.84C143.307 41.0533 142.82 41.36 142.407 41.76C142.007 42.16 141.693 42.6333 141.467 43.18C141.253 43.7267 141.147 44.3333 141.147 45C141.147 45.6533 141.253 46.2533 141.467 46.8C141.693 47.3467 142.007 47.8267 142.407 48.24C142.82 48.64 143.3 48.9467 143.847 49.16C144.407 49.3733 145.02 49.48 145.687 49.48C146.327 49.48 146.947 49.38 147.547 49.18C148.16 48.9667 148.753 48.6133 149.327 48.12L151.167 50.46C150.407 51.0333 149.52 51.4733 148.507 51.78C147.507 52.0867 146.507 52.24 145.507 52.24ZM148.207 50.04V44.78H151.167V50.46L148.207 50.04ZM153.556 52V41.24H156.536V44.28L156.116 43.4C156.436 42.64 156.95 42.0667 157.656 41.68C158.363 41.28 159.223 41.08 160.236 41.08V43.96C160.103 43.9467 159.983 43.94 159.876 43.94C159.77 43.9267 159.656 43.92 159.536 43.92C158.683 43.92 157.99 44.1667 157.456 44.66C156.936 45.14 156.676 45.8933 156.676 46.92V52H153.556ZM166.733 52.16C165.587 52.16 164.567 51.92 163.673 51.44C162.793 50.96 162.093 50.3067 161.573 49.48C161.067 48.64 160.813 47.6867 160.813 46.62C160.813 45.54 161.067 44.5867 161.573 43.76C162.093 42.92 162.793 42.2667 163.673 41.8C164.567 41.32 165.587 41.08 166.733 41.08C167.867 41.08 168.88 41.32 169.773 41.8C170.667 42.2667 171.367 42.9133 171.873 43.74C172.38 44.5667 172.633 45.5267 172.633 46.62C172.633 47.6867 172.38 48.64 171.873 49.48C171.367 50.3067 170.667 50.96 169.773 51.44C168.88 51.92 167.867 52.16 166.733 52.16ZM166.733 49.6C167.253 49.6 167.72 49.48 168.133 49.24C168.547 49 168.873 48.66 169.113 48.22C169.353 47.7667 169.473 47.2333 169.473 46.62C169.473 45.9933 169.353 45.46 169.113 45.02C168.873 44.58 168.547 44.24 168.133 44C167.72 43.76 167.253 43.64 166.733 43.64C166.213 43.64 165.747 43.76 165.333 44C164.92 44.24 164.587 44.58 164.333 45.02C164.093 45.46 163.973 45.9933 163.973 46.62C163.973 47.2333 164.093 47.7667 164.333 48.22C164.587 48.66 164.92 49 165.333 49.24C165.747 49.48 166.213 49.6 166.733 49.6ZM177.939 52.16C177.019 52.16 176.132 52.0533 175.279 51.84C174.439 51.6133 173.772 51.3333 173.279 51L174.319 48.76C174.812 49.0667 175.392 49.32 176.059 49.52C176.739 49.7067 177.406 49.8 178.059 49.8C178.779 49.8 179.286 49.7133 179.579 49.54C179.886 49.3667 180.039 49.1267 180.039 48.82C180.039 48.5667 179.919 48.38 179.679 48.26C179.452 48.1267 179.146 48.0267 178.759 47.96C178.372 47.8933 177.946 47.8267 177.479 47.76C177.026 47.6933 176.566 47.6067 176.099 47.5C175.632 47.38 175.206 47.2067 174.819 46.98C174.432 46.7533 174.119 46.4467 173.879 46.06C173.652 45.6733 173.539 45.1733 173.539 44.56C173.539 43.88 173.732 43.28 174.119 42.76C174.519 42.24 175.092 41.8333 175.839 41.54C176.586 41.2333 177.479 41.08 178.519 41.08C179.252 41.08 179.999 41.16 180.759 41.32C181.519 41.48 182.152 41.7133 182.659 42.02L181.619 44.24C181.099 43.9333 180.572 43.7267 180.039 43.62C179.519 43.5 179.012 43.44 178.519 43.44C177.826 43.44 177.319 43.5333 176.999 43.72C176.679 43.9067 176.519 44.1467 176.519 44.44C176.519 44.7067 176.632 44.9067 176.859 45.04C177.099 45.1733 177.412 45.28 177.799 45.36C178.186 45.44 178.606 45.5133 179.059 45.58C179.526 45.6333 179.992 45.72 180.459 45.84C180.926 45.96 181.346 46.1333 181.719 46.36C182.106 46.5733 182.419 46.8733 182.659 47.26C182.899 47.6333 183.019 48.1267 183.019 48.74C183.019 49.4067 182.819 50 182.419 50.52C182.019 51.0267 181.439 51.4267 180.679 51.72C179.932 52.0133 179.019 52.16 177.939 52.16ZM184.544 52V41.24H187.664V52H184.544ZM186.104 39.74C185.531 39.74 185.064 39.5733 184.704 39.24C184.344 38.9067 184.164 38.4933 184.164 38C184.164 37.5067 184.344 37.0933 184.704 36.76C185.064 36.4267 185.531 36.26 186.104 36.26C186.677 36.26 187.144 36.42 187.504 36.74C187.864 37.0467 188.044 37.4467 188.044 37.94C188.044 38.46 187.864 38.8933 187.504 39.24C187.157 39.5733 186.691 39.74 186.104 39.74ZM190.16 52V41.24H193.14V44.28L192.72 43.4C193.04 42.64 193.553 42.0667 194.26 41.68C194.966 41.28 195.826 41.08 196.84 41.08V43.96C196.706 43.9467 196.586 43.94 196.48 43.94C196.373 43.9267 196.26 43.92 196.14 43.92C195.286 43.92 194.593 44.1667 194.06 44.66C193.54 45.14 193.28 45.8933 193.28 46.92V52H190.16Z" fill="#101828"/>
<path d="M47 26L0 26.7055L1.00645 69.8234L46.3641 66.5989L47 26Z" fill="#F2F4F7"/>
<path d="M48 25L1 25.7055L2.00645 68.8234L47.3641 65.5989L48 25Z" fill="#0065D1"/>
<path d="M17.4055 55.53C16.2997 55.5735 15.2862 55.4403 14.365 55.1305C13.4576 54.8068 12.6683 54.3321 11.997 53.7063C11.3391 53.08 10.8315 52.3347 10.4741 51.4704C10.1301 50.6055 9.97544 49.6467 10.0102 48.5939C10.0449 47.5412 10.2633 46.5677 10.6654 45.6735C11.0808 44.7788 11.6457 43.9914 12.36 43.3112C13.0743 42.631 13.9035 42.0993 14.8476 41.7162C15.7921 41.3197 16.8239 41.0995 17.943 41.0556C19.1821 41.0069 20.2877 41.1697 21.26 41.5441C22.2456 41.918 23.0652 42.4846 23.7187 43.2442L21.577 45.2448C21.0883 44.7317 20.5484 44.3603 19.9572 44.1306C19.3664 43.8877 18.718 43.78 18.0119 43.8078C17.3324 43.8345 16.7094 43.9654 16.1428 44.2006C15.5762 44.4358 15.0797 44.7614 14.6535 45.1775C14.2407 45.5929 13.912 46.0783 13.6674 46.6336C13.4362 47.1883 13.3096 47.7989 13.2877 48.4652C13.2661 49.1181 13.3529 49.7136 13.548 50.2516C13.7565 50.7891 14.0538 51.2565 14.4398 51.6539C14.8396 52.0375 15.3092 52.3251 15.8484 52.5169C16.4009 52.7081 17.0102 52.7907 17.6764 52.7645C18.3159 52.7394 18.9387 52.6151 19.5449 52.3916C20.1648 52.1543 20.7693 51.7779 21.3584 51.2623L23.1199 53.5288C22.3415 54.1317 21.441 54.6062 20.4184 54.9525C19.409 55.2983 18.4047 55.4908 17.4055 55.53ZM20.176 53.2252L20.3495 47.9681L23.3072 47.8519L23.1199 53.5288L20.176 53.2252ZM32.4236 54.94C31.3178 54.9834 30.3043 54.8502 29.3831 54.5404C28.4757 54.2167 27.6864 53.742 27.0151 53.1162C26.3572 52.49 25.8496 51.7446 25.4922 50.8803C25.1482 50.0154 24.9935 49.0566 25.0283 48.0039C25.063 46.9511 25.2814 45.9776 25.6835 45.0835C26.0989 44.1888 26.6638 43.4013 27.3781 42.7211C28.0924 42.0409 28.9216 41.5093 29.8657 41.1261C30.8102 40.7297 31.842 40.5095 32.9611 40.4655C34.2002 40.4168 35.3058 40.5797 36.2781 40.954C37.2637 41.3279 38.0833 41.8946 38.7368 42.6541L36.5951 44.6547C36.1064 44.1416 35.5665 43.7702 34.9753 43.5406C34.3845 43.2976 33.7361 43.19 33.03 43.2177C32.3505 43.2444 31.7275 43.3754 31.1609 43.6106C30.5943 43.8458 30.0978 44.1714 29.6716 44.5874C29.2588 45.0029 28.9301 45.4883 28.6855 46.0435C28.4543 46.5983 28.3277 47.2088 28.3058 47.8751C28.2842 48.5281 28.371 49.1236 28.5661 49.6616C28.7746 50.199 29.0719 50.6665 29.4579 51.0639C29.8577 51.4474 30.3273 51.7351 30.8665 51.9268C31.419 52.1181 32.0283 52.2006 32.6945 52.1744C33.334 52.1493 33.9568 52.025 34.563 51.8016C35.1829 51.5643 35.7874 51.1878 36.3765 50.6723L38.138 52.9387C37.3596 53.5416 36.4591 54.0162 35.4365 54.3625C34.4271 54.7082 33.4228 54.9007 32.4236 54.94ZM35.1941 52.6352L35.3676 47.378L38.3253 47.2618L38.138 52.9387L35.1941 52.6352Z" fill="#F2F4F7"/>
</svg>
